HIERARCHY
ROOT Hips
{
  OFFSET 51.7014 83.9591 5.04015
  CHANNELS 6 Xposition Yposition Zposition Zrotation Xrotation Yrotation
  JOINT spine
  {
    OFFSET 0 5.95438 0.342407
    CHANNELS 3 Zrotation Xrotation Yrotation
    JOINT spine1
    {
      OFFSET 0 8.85602 0
      CHANNELS 3 Zrotation Xrotation Yrotation
      JOINT spine2
      {
        OFFSET 0 8.48567 0
        CHANNELS 3 Zrotation Xrotation Yrotation
        JOINT Neck
        {
          OFFSET 0 21.7863 1.0387
          CHANNELS 3 Zrotation Xrotation Yrotation
          JOINT Head
          {
            OFFSET 0 6.5822 0
            CHANNELS 3 Zrotation Xrotation Yrotation
            End Site
            {
              OFFSET 0 15.9326 -5.25436
            }
          }
        }
        JOINT RightShoulder
        {
          OFFSET -3.57307 9.16386 -0.497525
          CHANNELS 3 Zrotation Xrotation Yrotation
          JOINT RightArm
          {
            OFFSET 0 12.0192 0
            CHANNELS 3 Zrotation Xrotation Yrotation
            JOINT RightArmRoll
            {
              OFFSET 0 6.06755 0
              CHANNELS 3 Zrotation Xrotation Yrotation
              JOINT RightForeArm
              {
                OFFSET 0 17.6726 0
                CHANNELS 3 Zrotation Xrotation Yrotation
                JOINT RightForeArmRoll
                {
                  OFFSET 0 6.80872 0
                  CHANNELS 3 Zrotation Xrotation Yrotation
                  JOINT RightHand
                  {
                    OFFSET 0 13.6636 0
                    CHANNELS 3 Zrotation Xrotation Yrotation
                    End Site
                    {
                      OFFSET 0 0 0
                    }
                  }
                }
              }
            }
          }
        }
        JOINT LeftShoulder
        {
          OFFSET 3.57307 9.16386 -0.497525
          CHANNELS 3 Zrotation Xrotation Yrotation
          JOINT LeftArm
          {
            OFFSET 0 12.0192 0
            CHANNELS 3 Zrotation Xrotation Yrotation
            JOINT LeftArmRoll
            {
              OFFSET 0 6.06755 0
              CHANNELS 3 Zrotation Xrotation Yrotation
              JOINT LeftForeArm
              {
                OFFSET 0 17.6726 0
                CHANNELS 3 Zrotation Xrotation Yrotation
                JOINT LeftForeArmRoll
                {
                  OFFSET 0 6.80872 0
                  CHANNELS 3 Zrotation Xrotation Yrotation
                  JOINT LeftHand
                  {
                    OFFSET 0 13.6636 0
                    CHANNELS 3 Zrotation Xrotation Yrotation
                    End Site
                    {
                      OFFSET 0 0 0
                    }
                  }
                }
              }
            }
          }
        }
      }
    }
  }
  JOINT RightUpLeg
  {
    OFFSET -5.27774 -0.967797 -0.811858
    CHANNELS 3 Zrotation Xrotation Yrotation
    JOINT RightUpLegRoll
    {
      OFFSET 0 16.0214 0
      CHANNELS 3 Zrotation Xrotation Yrotation
      JOINT RightLeg
      {
        OFFSET 0 -19.8401 0
        CHANNELS 3 Zrotation Xrotation Yrotation
        JOINT RightLegRoll
        {
          OFFSET 0 19.905 0
          CHANNELS 3 Zrotation Xrotation Yrotation
          JOINT RightFoot
          {
            OFFSET 0 16.5675 0
            CHANNELS 3 Zrotation Xrotation Yrotation
            JOINT RightToeBase
            {
              OFFSET 0 13.8496 0
              CHANNELS 3 Zrotation Xrotation Yrotation
              End Site
              {
                OFFSET 0.00587034 6.70728 -0.773117
              }
            }
          }
        }
      }
    }
  }
  JOINT LeftUpLeg
  {
    OFFSET 5.27774 -0.967797 -0.811858
    CHANNELS 3 Zrotation Xrotation Yrotation
    JOINT LeftUpLegRoll
    {
      OFFSET 0 16.0215 0
      CHANNELS 3 Zrotation Xrotation Yrotation
      JOINT LeftLeg
      {
        OFFSET 0 19.84 0
        CHANNELS 3 Zrotation Xrotation Yrotation
        JOINT LeftLegRoll
        {
          OFFSET 0 20.089 0
          CHANNELS 3 Zrotation Xrotation Yrotation
          JOINT LeftFoot
          {
            OFFSET 0 16.3835 0
            CHANNELS 3 Zrotation Xrotation Yrotation
            JOINT LeftToeBase
            {
              OFFSET 0 13.8496 0
              CHANNELS 3 Zrotation Xrotation Yrotation
              End Site
              {
                OFFSET -0.0263083 6.70727 -0.773117
              }
            }
          }
        }
      }
    }
  }
}
MOTION
Frames: 11
Frame Time: 0.00208333
53.9733 84.0472 0.505401 1.97685 -6.29979 -2.07345 0.13678 1.13772 0.0645166 0.273071 6.27836 0.103961 0.272427 7.92343 0.105702 -11.7222 30.0765 1.71032 5.59302 21.3826 -4.52827 59.5107 -2.85292 -1.76372 124.311 19.231 -25.2265 3.77797e-007 2.02255e-006 7.73199e-008 -3.63874 -0.027679 -1.99213 -1.40829e-006 2.25758e-006 -3.0116 8.03009 -4.95136 0.69763 -60.4937 -5.62636 3.53819 -127.342 19.9946 27.4285 2.8678e-006 5.1799e-007 2.55233e-006 3.64357 -0.0392781 1.99326 4.37802e-006 -3.56065e-006 3.0116 -8.03008 -4.95138 -0.697624 175.602 3.41304 5.25063 180 7.01548e-015 178.926 176.426 13.1874 179.993 -2.69273e-006 2.77701e-007 0.204268 -20.073 69.6171 20.9964 8.13306 25.2329 -3.48627 178.174 1.6253 2.09509 4.54188e-006 -4.6773e-006 -1.09195 -1.21695 -11.2205 0.232415 5.31134e-006 -1.15915e-006 -0.176036 19.4305 68.9144 -20.3416 -8.13334 25.2328 3.48639 
53.973 84.048 0.492234 1.96758 -6.24009 -2.06873 0.138331 1.13716 0.064454 0.276184 6.27725 0.104276 0.275547 7.92232 0.105177 -11.7213 30.0364 1.69869 5.61378 21.3655 -4.53703 59.4988 -2.86183 -1.76818 124.326 19.2404 -25.2446 3.77797e-007 2.02255e-006 7.73198e-008 -3.63874 -0.027679 -1.99213 -1.40829e-006 2.25758e-006 -3.0116 8.03009 -4.95136 0.69763 -60.4866 -5.62429 3.53653 -127.344 19.9999 27.4324 2.8678e-006 5.1799e-007 2.55233e-006 3.64357 -0.0392781 1.99326 4.37802e-006 -3.56065e-006 3.0116 -8.03008 -4.95138 -0.697624 175.624 3.47656 5.22497 180 7.01548e-015 178.927 176.439 13.1827 179.991 -2.69273e-006 2.77701e-007 0.204268 -20.0681 69.6121 20.9911 8.13306 25.2329 -3.48627 178.181 1.70907 2.10081 4.54188e-006 -4.6773e-006 -1.09127 -1.21307 -11.248 0.233497 5.31134e-006 -1.15915e-006 -0.176252 19.4285 68.9122 -20.3394 -8.13334 25.2328 3.48639 
53.9806 84.0449 0.464859 1.95865 -6.18104 -2.06413 0.139785 1.13661 0.0643771 0.279103 6.27614 0.104616 0.278472 7.92121 0.104642 -11.7201 29.9969 1.68705 5.63397 21.3484 -4.54564 59.4874 -2.87138 -1.77308 124.341 19.2502 -25.2629 3.77797e-007 2.02255e-006 7.73198e-008 -3.63874 -0.027679 -1.99213 -1.40829e-006 2.25758e-006 -3.0116 8.03009 -4.95136 0.69763 -60.4793 -5.62208 3.53479 -127.346 20.0047 27.4362 2.8678e-006 5.1799e-007 2.55233e-006 3.64357 -0.0392781 1.99326 4.37802e-006 -3.56065e-006 3.0116 -8.03008 -4.95138 -0.697624 175.646 3.53949 5.19978 180 7.01548e-015 178.927 176.453 13.1782 179.988 -2.69273e-006 2.77701e-007 0.204268 -20.0632 69.6071 20.9859 8.13306 25.2329 -3.48627 178.189 1.79184 2.10661 4.54188e-006 -4.6773e-006 -1.09062 -1.20934 -11.275 0.234531 5.31134e-006 -1.15915e-006 -0.176453 19.4264 68.9099 -20.3372 -8.13334 25.2328 3.48639 
53.9774 84.039 0.463562 1.94994 -6.12246 -2.05962 0.141172 1.13606 0.0642901 0.281885 6.27505 0.104971 0.281259 7.92011 0.1041 -11.7186 29.9578 1.6754 5.65376 21.3314 -4.55416 59.4761 -2.88137 -1.77827 124.355 19.2602 -25.2814 3.77797e-007 2.02255e-006 7.73199e-008 -3.63874 -0.027679 -1.99213 -1.40829e-006 2.25758e-006 -3.0116 8.03009 -4.95136 0.69763 -60.4719 -5.61979 3.53299 -127.348 20.0093 27.4399 2.8678e-006 5.1799e-007 2.55233e-006 3.64357 -0.0392781 1.99326 4.37802e-006 -3.56065e-006 3.0116 -8.03008 -4.95138 -0.697624 175.668 3.602 5.17494 180 7.01548e-015 178.928 176.466 13.1738 179.985 -2.69273e-006 2.77701e-007 0.204268 -20.0583 69.6022 20.9807 8.13306 25.2329 -3.48627 178.195 1.87392 2.11247 4.54188e-006 -4.6773e-006 -1.08999 -1.20571 -11.3017 0.235531 5.31134e-006 -1.15915e-006 -0.176643 19.4242 68.9076 -20.3348 -8.13334 25.2328 3.48639 
53.9692 84.0426 0.475097 1.94137 -6.06415 -2.05516 0.142519 1.13551 0.0641973 0.28459 6.27395 0.105337 0.283969 7.91902 0.103554 -11.7171 29.9189 1.66374 5.67333 21.3143 -4.56263 59.4651 -2.89161 -1.78363 124.37 19.2703 -25.2999 3.77797e-007 2.02255e-006 7.73198e-008 -3.63874 -0.027679 -1.99213 -1.40829e-006 2.25758e-006 -3.0116 8.03009 -4.95136 0.69763 -60.4645 -5.61745 3.53115 -127.351 20.0137 27.4436 2.8678e-006 5.1799e-007 2.55233e-006 3.64357 -0.0392781 1.99326 4.37802e-006 -3.56065e-006 3.0116 -8.03008 -4.95138 -0.697624 175.689 3.66427 5.15028 180 7.01548e-015 178.929 176.479 13.1694 179.983 -2.69273e-006 2.77701e-007 0.204268 -20.0535 69.5973 20.9755 8.13306 25.2329 -3.48627 178.202 1.9556 2.11835 4.54188e-006 -4.6773e-006 -1.08937 -1.20213 -11.3282 0.236513 5.31134e-006 -1.15915e-006 -0.176827 19.422 68.9052 -20.3325 -8.13334 25.2328 3.48639 
53.9742 84.0379 0.461202 1.93281 -6.0059 -2.05071 0.143857 1.13496 0.0641032 0.287274 6.27285 0.105705 0.286659 7.91792 0.103007 -11.7155 29.88 1.65209 5.69283 21.2973 -4.57107 59.4541 -2.90191 -1.78904 124.385 19.2805 -25.3184 3.77797e-007 2.02255e-006 7.73198e-008 -3.63874 -0.027679 -1.99213 -1.40829e-006 2.25758e-006 -3.0116 8.03009 -4.95136 0.69763 -60.4571 -5.6151 3.5293 -127.353 20.018 27.4472 2.8678e-006 5.1799e-007 2.55233e-006 3.64357 -0.0392781 1.99326 4.37802e-006 -3.56065e-006 3.0116 -8.03008 -4.95138 -0.697624 175.711 3.72649 5.12568 180 7.01548e-015 178.929 176.492 13.1651 179.98 -2.69273e-006 2.77701e-007 0.204268 -20.0487 69.5924 20.9703 8.13306 25.2329 -3.48627 178.209 2.03718 2.12425 4.54188e-006 -4.6773e-006 -1.08875 -1.19857 -11.3546 0.23749 5.31134e-006 -1.15915e-006 -0.177009 19.4198 68.9028 -20.3301 -8.13334 25.2328 3.48639 
53.972 84.0384 0.437793 1.92418 -5.94752 -2.04624 0.145214 1.13441 0.0640119 0.289998 6.27176 0.106068 0.289388 7.91682 0.102462 -11.7141 29.8411 1.64046 5.71244 21.2802 -4.57955 59.4429 -2.91209 -1.79436 124.4 19.2906 -25.3369 3.77797e-007 2.02255e-006 7.73199e-008 -3.63874 -0.027679 -1.99213 -1.40829e-006 2.25758e-006 -3.0116 8.03009 -4.95136 0.69763 -60.4496 -5.61277 3.52748 -127.355 20.0224 27.4508 2.8678e-006 5.1799e-007 2.55233e-006 3.64357 -0.0392781 1.99326 4.37802e-006 -3.56065e-006 3.0116 -8.03008 -4.95138 -0.697624 175.732 3.78883 5.10098 180 7.01549e-015 178.93 176.505 13.1608 179.978 -2.69273e-006 2.77701e-007 0.204268 -20.0439 69.5875 20.9651 8.13306 25.2329 -3.48627 178.216 2.11896 2.13014 4.54188e-006 -4.6773e-006 -1.08813 -1.19498 -11.3811 0.238476 5.31134e-006 -1.15915e-006 -0.177195 19.4176 68.9004 -20.3277 -8.13334 25.2328 3.48639 
53.9688 84.0363 0.437057 1.91537 -5.8888 -2.04171 0.14662 1.13386 0.0639277 0.292819 6.27065 0.106419 0.292215 7.91572 0.101922 -11.7128 29.8018 1.62885 5.73233 21.2631 -4.58809 59.4317 -2.92196 -1.79946 124.415 19.3005 -25.3553 3.77797e-007 2.02255e-006 7.73199e-008 -3.63874 -0.027679 -1.99213 -1.40829e-006 2.25758e-006 -3.0116 8.03009 -4.95136 0.69763 -60.4423 -5.61051 3.52569 -127.357 20.0271 27.4545 2.8678e-006 5.1799e-007 2.55233e-006 3.64357 -0.0392781 1.99326 4.37802e-006 -3.56065e-006 3.0116 -8.03008 -4.95138 -0.697624 175.754 3.85148 5.07605 180 7.01549e-015 178.931 176.518 13.1563 179.975 -2.69273e-006 2.77701e-007 0.204268 -20.0391 69.5826 20.9599 8.13306 25.2329 -3.48627 178.223 2.20123 2.136 4.54188e-006 -4.6773e-006 -1.0875 -1.19132 -11.4079 0.239487 5.31134e-006 -1.15915e-006 -0.177388 19.4155 68.898 -20.3254 -8.13334 25.2328 3.48639 
53.982 84.033 0.412994 1.90628 -5.82956 -2.0371 0.148103 1.1333 0.0638551 0.295797 6.26955 0.106751 0.295198 7.91462 0.10139 -11.7118 29.7622 1.61727 5.75265 21.2461 -4.59674 59.4201 -2.93131 -1.80423 124.43 19.3101 -25.3736 3.77797e-007 2.02255e-006 7.73199e-008 -3.63874 -0.027679 -1.99213 -1.40829e-006 2.25758e-006 -3.0116 8.03009 -4.95136 0.69763 -60.4351 -5.60835 3.52397 -127.359 20.032 27.4584 2.8678e-006 5.1799e-007 2.55233e-006 3.64357 -0.0392781 1.99326 4.37802e-006 -3.56065e-006 3.0116 -8.03008 -4.95138 -0.697624 175.777 3.91461 5.05074 180 7.01549e-015 178.931 176.531 13.1518 179.973 -2.69273e-006 2.77701e-007 0.204268 -20.0342 69.5776 20.9546 8.13306 25.2329 -3.48627 178.23 2.2843 2.14181 4.54188e-006 -4.6773e-006 -1.08684 -1.18753 -11.435 0.240537 5.31134e-006 -1.15915e-006 -0.177593 19.4134 68.8958 -20.3232 -8.13334 25.2328 3.48639 
54.0038 84.0457 0.373486 1.89679 -5.76959 -2.03237 0.149693 1.13274 0.0637982 0.298988 6.26844 0.107057 0.298396 7.91351 0.100869 -11.7112 29.7219 1.60574 5.77359 21.229 -4.60553 59.408 -2.93997 -1.80852 124.444 19.3194 -25.3916 3.77797e-007 2.02255e-006 7.73199e-008 -3.63874 -0.027679 -1.99213 -1.40829e-006 2.25758e-006 -3.0116 8.03009 -4.95136 0.69763 -60.428 -5.60632 3.52235 -127.361 20.0374 27.4624 2.8678e-006 5.1799e-007 2.55233e-006 3.64357 -0.0392781 1.99326 4.37802e-006 -3.56065e-006 3.0116 -8.03008 -4.95138 -0.697624 175.8 3.9784 5.02491 180 7.01549e-015 178.932 176.544 13.147 179.97 -2.69273e-006 2.77701e-007 0.204268 -20.0293 69.5726 20.9493 8.13306 25.2329 -3.48627 178.238 2.36845 2.14754 4.54188e-006 -4.6773e-006 -1.08615 -1.18359 -11.4627 0.24164 5.31134e-006 -1.15915e-006 -0.177815 19.4114 68.8936 -20.321 -8.13334 25.2328 3.48639 
54.0007 84.0424 0.377582 1.88682 -5.70869 -2.02747 0.15142 1.13218 0.0637615 0.302453 6.26731 0.107329 0.301867 7.91238 0.100363 -11.711 29.6808 1.59426 5.7953 21.2119 -4.61452 59.3955 -2.94774 -1.81221 124.459 19.3282 -25.4095 3.77797e-007 2.02255e-006 7.73199e-008 -3.63874 -0.027679 -1.99213 -1.40829e-006 2.25758e-006 -3.0116 8.03009 -4.95136 0.69763 -60.4212 -5.60447 3.52084 -127.364 20.0435 27.4666 2.8678e-006 5.1799e-007 2.55233e-006 3.64357 -0.0392781 1.99326 4.37802e-006 -3.56065e-006 3.0116 -8.03008 -4.95138 -0.697624 175.823 4.04304 4.99842 180 7.01549e-015 178.933 176.558 13.1419 179.968 -2.69273e-006 2.77701e-007 0.204268 -20.0242 69.5674 20.9439 8.13306 25.2329 -3.48627 178.246 2.454 2.15318 4.54188e-006 -4.6773e-006 -1.08542 -1.17945 -11.491 0.242812 5.31134e-006 -1.15915e-006 -0.178059 19.4095 68.8915 -20.319 -8.13334 25.2328 3.48639 
